# Blender v2.79 (sub 0) OBJ File: 'VG_Bed.blend'
# www.blender.org
mtllib VG_Bed.mtl
o Cube_Cube.003
v -1.405297 2.140668 -5.125231
v -1.405297 4.166421 -5.125231
v -1.405297 2.140668 -30.476837
v -1.405297 4.003901 -30.476837
v 8.106970 2.140668 -5.125231
v 8.106970 4.166421 -5.125231
v 8.106970 2.140668 -30.476837
v 8.106970 4.003901 -30.476837
v -1.405297 2.140668 -26.360428
v 8.106970 2.140668 -26.360428
v -1.405297 3.261022 -24.302330
v -1.405297 3.712612 -28.367468
v -1.405297 2.140718 -26.360428
v 8.106970 3.712612 -28.367468
v 8.106970 3.261022 -24.302330
v 8.106970 2.140718 -26.360428
v -1.405297 3.597127 -7.260433
v -1.405297 3.184234 -10.481169
v 8.106970 3.184234 -10.481169
v 8.106970 3.597127 -7.260433
vn 1.0000 0.0000 0.0000
vn 0.0000 0.0000 -1.0000
vn 0.0000 0.0000 1.0000
vn 0.0000 -1.0000 0.0000
vn 0.0000 0.9662 -0.2576
vn -1.0000 -0.0000 0.0000
vn 0.0000 0.9939 0.1104
vn 0.0000 0.9906 0.1368
vn 0.0000 0.9919 -0.1272
vn 0.0000 1.0000 0.0056
usemtl None
s off
f 10//1 16//1 15//1 19//1 20//1 6//1 5//1
f 3//2 4//2 8//2 7//2
f 7//1 8//1 14//1 16//1 10//1
f 5//3 6//3 2//3 1//3
f 9//4 10//4 5//4 1//4
f 20//5 17//5 2//5 6//5
f 3//4 7//4 10//4 9//4
f 9//6 13//6 12//6 4//6 3//6
f 11//6 12//6 13//6
f 14//1 15//1 16//1
f 11//7 15//7 14//7 12//7
f 8//8 4//8 12//8 14//8
f 1//6 2//6 17//6 18//6 11//6 13//6 9//6
f 17//9 20//9 19//9 18//9
f 15//10 11//10 18//10 19//10
o CotéLit.000_Pied1.006
v 7.466367 0.014209 -30.329956
v 7.466367 8.737815 -30.329956
v 7.466367 0.014209 -31.293381
v 7.466367 8.737815 -31.293381
v 8.469461 0.014209 -30.329956
v 8.469461 8.737815 -30.329956
v 8.469461 0.014209 -31.293381
v 8.469461 8.737815 -31.293381
v -0.582829 1.813056 -30.442909
v -0.582829 7.736844 -30.442909
v -0.582829 1.813056 -31.127888
v -0.582829 7.736844 -31.127888
v 7.477313 1.797043 -30.442909
v 7.477313 7.736844 -30.442909
v 7.477313 1.797043 -31.127888
v 7.477313 7.736844 -31.127888
v 5.945029 1.550532 -31.127888
v 5.945029 1.550532 -30.442909
v 0.770417 1.550532 -31.127888
v 0.770417 1.550532 -30.442909
v 3.357723 1.459857 -30.442909
v 3.357723 1.459857 -31.127888
v 5.519773 8.424696 -31.127888
v 6.351739 8.064317 -31.127888
v 5.945029 7.799496 -31.127888
v 6.351739 8.064317 -30.442909
v 5.519773 8.424696 -30.442909
v 5.945029 7.799496 -30.442909
v 1.244736 8.484974 -30.442909
v 0.327497 8.002235 -30.442909
v 0.770417 7.801011 -30.442909
v 0.327497 8.002235 -31.127888
v 1.244736 8.484974 -31.127888
v 0.770417 7.801011 -31.127888
v 3.036211 8.604168 -31.127888
v 3.678916 8.595719 -31.127888
v 3.357723 8.158670 -31.127888
v 3.678916 8.595719 -30.442909
v 3.036211 8.604168 -30.442909
v 3.357723 8.158670 -30.442909
v -1.520975 0.014209 -30.329956
v -1.520975 8.737815 -30.329956
v -1.520975 0.014209 -31.293381
v -1.520975 8.737815 -31.293381
v -0.517881 0.014209 -30.329956
v -0.517881 8.737815 -30.329956
v -0.517881 0.014209 -31.293381
v -0.517881 8.737815 -31.293381
vn -1.0000 0.0000 0.0000
vn 0.0000 0.0000 -1.0000
vn 1.0000 0.0000 0.0000
vn 0.0000 0.0000 1.0000
vn 0.0000 -1.0000 0.0000
vn 0.0000 1.0000 0.0000
vn 0.0925 0.9957 0.0000
vn 0.1588 -0.9873 0.0000
vn 0.0350 -0.9994 0.0000
vn -0.1904 -0.9817 0.0000
vn -0.0350 -0.9994 0.0000
vn 0.3975 0.9176 0.0000
vn 0.2794 0.9602 0.0000
vn -0.4657 0.8849 0.0000
vn -0.2799 0.9600 0.0000
vn 0.0131 0.9999 0.0000
vn -0.0664 0.9978 0.0000
usemtl None
s off
f 21//11 22//11 24//11 23//11
f 23//12 24//12 28//12 27//12
f 27//13 28//13 26//13 25//13
f 25//14 26//14 22//14 21//14
f 23//15 27//15 25//15 21//15
f 28//16 24//16 22//16 26//16
f 29//11 30//11 32//11 31//11
f 39//12 54//12 53//12 55//12 57//12 42//12
f 35//13 36//13 34//13 33//13
f 43//17 56//17 58//17 47//17
f 37//18 35//18 33//18 38//18
f 38//14 48//14 47//14 58//14 60//14 41//14
f 42//19 37//19 38//19 41//19
f 41//14 60//14 59//14 49//14 51//14 40//14
f 37//12 45//12 44//12 36//12 35//12
f 42//12 57//12 56//12 43//12 45//12 37//12
f 31//20 39//20 40//20 29//20
f 31//12 32//12 52//12 54//12 39//12
f 40//14 51//14 50//14 30//14 29//14
f 33//14 34//14 46//14 48//14 38//14
f 39//21 42//21 41//21 40//21
f 43//12 44//12 45//12
f 46//14 47//14 48//14
f 43//22 47//22 46//22 44//22
f 36//23 44//23 46//23 34//23
f 49//14 50//14 51//14
f 52//12 53//12 54//12
f 52//24 50//24 49//24 53//24
f 52//25 32//25 30//25 50//25
f 55//12 56//12 57//12
f 58//14 59//14 60//14
f 55//26 59//26 58//26 56//26
f 55//27 53//27 49//27 59//27
f 61//11 62//11 64//11 63//11
f 63//12 64//12 68//12 67//12
f 67//13 68//13 66//13 65//13
f 65//14 66//14 62//14 61//14
f 63//15 67//15 65//15 61//15
f 68//16 64//16 62//16 66//16
o CotéLit.002_Pied1.007
v 7.466367 0.014209 -4.061361
v 7.466367 8.737815 -4.061361
v 7.466367 0.014209 -5.024785
v 7.466367 8.737815 -5.024785
v 8.469461 0.014209 -4.061361
v 8.469461 8.737815 -4.061361
v 8.469461 0.014209 -5.024785
v 8.469461 8.737815 -5.024785
v -0.582829 1.813056 -4.174314
v -0.582829 7.736844 -4.174314
v -0.582829 1.813056 -4.859293
v -0.582829 7.736844 -4.859293
v 7.477313 1.797043 -4.174314
v 7.477313 7.736844 -4.174314
v 7.477313 1.797043 -4.859293
v 7.477313 7.736844 -4.859293
v 5.945029 1.550532 -4.859293
v 5.945029 1.550532 -4.174314
v 0.770417 1.550532 -4.859293
v 0.770417 1.550532 -4.174314
v 3.357723 1.459857 -4.174314
v 3.357723 1.459857 -4.859293
v 5.519773 8.424696 -4.859293
v 6.351739 8.064317 -4.859293
v 5.945029 7.799496 -4.859293
v 6.351739 8.064317 -4.174314
v 5.519773 8.424696 -4.174314
v 5.945029 7.799496 -4.174314
v 1.244736 8.484974 -4.174314
v 0.327497 8.002235 -4.174314
v 0.770417 7.801011 -4.174314
v 0.327497 8.002235 -4.859293
v 1.244736 8.484974 -4.859293
v 0.770417 7.801011 -4.859293
v 3.036211 8.604168 -4.859293
v 3.678916 8.595719 -4.859293
v 3.357723 8.158670 -4.859293
v 3.678916 8.595719 -4.174314
v 3.036211 8.604168 -4.174314
v 3.357723 8.158670 -4.174314
v -1.520975 0.014209 -4.061362
v -1.520975 8.737815 -4.061362
v -1.520975 0.014209 -5.024786
v -1.520975 8.737815 -5.024786
v -0.517881 0.014209 -4.061362
v -0.517881 8.737815 -4.061362
v -0.517881 0.014209 -5.024786
v -0.517881 8.737815 -5.024786
vn -1.0000 0.0000 0.0000
vn 0.0000 0.0000 -1.0000
vn 1.0000 0.0000 0.0000
vn 0.0000 0.0000 1.0000
vn 0.0000 -1.0000 0.0000
vn 0.0000 1.0000 0.0000
vn 0.0925 0.9957 0.0000
vn 0.1588 -0.9873 0.0000
vn 0.0350 -0.9994 0.0000
vn -0.1904 -0.9817 0.0000
vn -0.0350 -0.9994 0.0000
vn 0.3975 0.9176 0.0000
vn 0.2794 0.9602 0.0000
vn -0.4657 0.8849 0.0000
vn -0.2799 0.9600 0.0000
vn 0.0131 0.9999 0.0000
vn -0.0664 0.9978 0.0000
usemtl None
s off
f 69//28 70//28 72//28 71//28
f 71//29 72//29 76//29 75//29
f 75//30 76//30 74//30 73//30
f 73//31 74//31 70//31 69//31
f 71//32 75//32 73//32 69//32
f 76//33 72//33 70//33 74//33
f 77//28 78//28 80//28 79//28
f 87//29 102//29 101//29 103//29 105//29 90//29
f 83//30 84//30 82//30 81//30
f 91//34 104//34 106//34 95//34
f 85//35 83//35 81//35 86//35
f 86//31 96//31 95//31 106//31 108//31 89//31
f 90//36 85//36 86//36 89//36
f 89//31 108//31 107//31 97//31 99//31 88//31
f 85//29 93//29 92//29 84//29 83//29
f 90//29 105//29 104//29 91//29 93//29 85//29
f 79//37 87//37 88//37 77//37
f 79//29 80//29 100//29 102//29 87//29
f 88//31 99//31 98//31 78//31 77//31
f 81//31 82//31 94//31 96//31 86//31
f 87//38 90//38 89//38 88//38
f 91//29 92//29 93//29
f 94//31 95//31 96//31
f 91//39 95//39 94//39 92//39
f 84//40 92//40 94//40 82//40
f 97//31 98//31 99//31
f 100//29 101//29 102//29
f 100//41 98//41 97//41 101//41
f 100//42 80//42 78//42 98//42
f 103//29 104//29 105//29
f 106//31 107//31 108//31
f 103//43 107//43 106//43 104//43
f 103//44 101//44 97//44 107//44
f 109//28 110//28 112//28 111//28
f 111//29 112//29 116//29 115//29
f 115//30 116//30 114//30 113//30
f 113//31 114//31 110//31 109//31
f 111//32 115//32 113//32 109//32
f 116//33 112//33 110//33 114//33
